<svg width="18" height="18" viewBox="0 0 18 18" fill="none" xmlns="http://www.w3.org/2000/svg">
<path d="M7.65 10.35H1.35C0.9675 10.35 0.646875 10.2214 0.388125 9.96412C0.129375 9.70687 0 9.38812 0 9.00787C0 8.62762 0.129375 8.30625 0.388125 8.04375C0.646875 7.78125 0.9675 7.65 1.35 7.65H7.65V1.35C7.65 0.9675 7.77863 0.646874 8.03588 0.388124C8.29313 0.129374 8.61188 0 8.99213 0C9.37238 0 9.69375 0.129374 9.95625 0.388124C10.2188 0.646874 10.35 0.9675 10.35 1.35V7.65H16.65C17.0325 7.65 17.3531 7.77863 17.6119 8.03588C17.8706 8.29313 18 8.61188 18 8.99213C18 9.37238 17.8706 9.69375 17.6119 9.95625C17.3531 10.2188 17.0325 10.35 16.65 10.35H10.35V16.65C10.35 17.0325 10.2214 17.3531 9.96412 17.6119C9.70687 17.8706 9.38812 18 9.00787 18C8.62762 18 8.30625 17.8706 8.04375 17.6119C7.78125 17.3531 7.65 17.0325 7.65 16.65V10.35Z" fill="white"/>
</svg>
