<svg width="24" height="24" viewBox="0 0 24 24" fill="none" xmlns="http://www.w3.org/2000/svg">
<path d="M3.1146 18.7181L2.51634 18.2658H2.51634L3.1146 18.7181ZM4.37705 15.1215L3.62705 15.1124V15.1215H4.37705ZM4.40354 12.947L5.15354 12.9561V12.947H4.40354ZM20.2606 18.7356L20.8678 18.2954L20.8678 18.2954L20.2606 18.7356ZM19.0456 15.1215L18.2956 15.1119V15.1215H19.0456ZM19.0721 13.0547L19.8221 13.0643V13.0547H19.0721ZM15.9079 19.7434C15.9079 19.3292 15.5721 18.9934 15.1579 18.9934C14.7437 18.9934 14.4079 19.3292 14.4079 19.7434H15.9079ZM8.96053 19.7434C8.96053 19.3292 8.62474 18.9934 8.21053 18.9934C7.79631 18.9934 7.46053 19.3292 7.46053 19.7434H8.96053ZM2.30385 5.93569C2.14973 6.32016 2.33646 6.75678 2.72093 6.91091C3.1054 7.06504 3.54202 6.87831 3.69615 6.49384L2.30385 5.93569ZM6.4128 3.39704C6.77747 3.2006 6.91384 2.74572 6.7174 2.38106C6.52096 2.01639 6.06609 1.88001 5.70142 2.07646L6.4128 3.39704ZM17.6525 2.08967C17.2899 1.88936 16.8336 2.0209 16.6333 2.38346C16.433 2.74602 16.5645 3.20231 16.9271 3.40262L17.6525 2.08967ZM19.6693 6.47692C19.8193 6.86302 20.2539 7.0544 20.64 6.90439C21.0261 6.75438 21.2175 6.31978 21.0675 5.93368L19.6693 6.47692ZM3.71287 19.1704C4.4217 18.2329 5.12705 16.8316 5.12705 15.1215H3.62705C3.62705 16.4128 3.09231 17.504 2.51634 18.2658L3.71287 19.1704ZM5.12699 15.1307L5.15349 12.9561L3.6536 12.9378L3.6271 15.1124L5.12699 15.1307ZM20.8678 18.2954C20.316 17.5343 19.7956 16.4322 19.7956 15.1215H18.2956C18.2956 16.8329 18.9726 18.2368 19.6534 19.1758L20.8678 18.2954ZM19.7956 15.1311L19.8221 13.0643L18.3222 13.0451L18.2957 15.1119L19.7956 15.1311ZM19.8221 13.0547C19.8221 8.54419 16.182 4.88158 11.6842 4.88158V6.38158C15.3469 6.38158 18.3221 9.36588 18.3221 13.0547H19.8221ZM19.8184 20.4934C20.4386 20.4934 20.8357 20.056 20.9994 19.6697C21.1626 19.2845 21.1913 18.7417 20.8678 18.2954L19.6534 19.1758C19.6239 19.1352 19.6191 19.1009 19.6185 19.0904C19.6182 19.0849 19.6187 19.0826 19.6186 19.0831C19.6186 19.0832 19.6185 19.0836 19.6184 19.084C19.6183 19.0844 19.6182 19.0846 19.6182 19.0846C19.6182 19.0845 19.6185 19.0839 19.6192 19.0827C19.6199 19.0815 19.6212 19.0794 19.6233 19.0765C19.6273 19.071 19.6359 19.0607 19.6512 19.0487C19.6852 19.0218 19.7449 18.9934 19.8184 18.9934V20.4934ZM5.15354 12.947C5.15354 9.31764 8.08078 6.38158 11.6842 6.38158V4.88158C7.24564 4.88158 3.65354 8.49595 3.65354 12.947H5.15354ZM3.55105 18.9934C3.62652 18.9934 3.68709 19.0231 3.72068 19.0501C3.74903 19.0729 3.75333 19.0885 3.75111 19.083C3.74918 19.0784 3.75041 19.0765 3.74986 19.0844C3.7492 19.094 3.74411 19.1291 3.71287 19.1704L2.51634 18.2658C2.17857 18.7126 2.20389 19.2643 2.36366 19.6531C2.52366 20.0425 2.92078 20.4934 3.55105 20.4934V18.9934ZM19.8184 18.9934H3.55105V20.4934H19.8184V18.9934ZM14.4079 19.7434C14.4079 21.0829 13.2348 22.25 11.6842 22.25V23.75C13.9706 23.75 15.9079 22.001 15.9079 19.7434H14.4079ZM11.6842 22.25C10.1336 22.25 8.96053 21.0829 8.96053 19.7434H7.46053C7.46053 22.001 9.39786 23.75 11.6842 23.75V22.25ZM13.25 3.31579C13.25 4.18055 12.549 4.88158 11.6842 4.88158V6.38158C13.3774 6.38158 14.75 5.00898 14.75 3.31579H13.25ZM11.6842 4.88158C10.8194 4.88158 10.1184 4.18055 10.1184 3.31579H8.61842C8.61842 5.00898 9.99102 6.38158 11.6842 6.38158V4.88158ZM10.1184 3.31579C10.1184 2.45103 10.8194 1.75 11.6842 1.75V0.25C9.99102 0.25 8.61842 1.6226 8.61842 3.31579H10.1184ZM11.6842 1.75C12.549 1.75 13.25 2.45103 13.25 3.31579H14.75C14.75 1.6226 13.3774 0.25 11.6842 0.25V1.75ZM3.69615 6.49384C4.22965 5.16301 5.18108 4.06055 6.4128 3.39704L5.70142 2.07646C4.14008 2.91753 2.95918 4.30099 2.30385 5.93569L3.69615 6.49384ZM16.9271 3.40262C18.1871 4.09872 19.1647 5.17817 19.6693 6.47692L21.0675 5.93368C20.4265 4.2839 19.197 2.94299 17.6525 2.08967L16.9271 3.40262Z" fill="white"/>
</svg>
