<svg width="186" height="24" viewBox="0 0 186 24" fill="none" xmlns="http://www.w3.org/2000/svg">
<path d="M8.21851 16.5H5.52532V7.77273H8.33782C9.18442 7.77273 9.90885 7.94744 10.5111 8.29688C11.1134 8.64347 11.575 9.14205 11.8961 9.79261C12.2171 10.4403 12.3776 11.2159 12.3776 12.1193C12.3776 13.0284 12.2157 13.8111 11.8918 14.4673C11.5679 15.1207 11.0963 15.6236 10.477 15.9759C9.85771 16.3253 9.10487 16.5 8.21851 16.5ZM6.58214 15.5625H8.15032C8.87192 15.5625 9.46993 15.4233 9.94436 15.1449C10.4188 14.8665 10.7725 14.4702 11.0054 13.956C11.2384 13.4418 11.3549 12.8295 11.3549 12.1193C11.3549 11.4148 11.2398 10.8082 11.0097 10.2997C10.7796 9.78835 10.4358 9.39631 9.97845 9.12358C9.52106 8.84801 8.95146 8.71023 8.26964 8.71023H6.58214V15.5625ZM15.9701 16.6534C15.5553 16.6534 15.1789 16.5753 14.8408 16.419C14.5028 16.2599 14.2343 16.0312 14.0354 15.733C13.8366 15.4318 13.7371 15.0682 13.7371 14.642C13.7371 14.267 13.811 13.9631 13.9587 13.7301C14.1065 13.4943 14.3039 13.3097 14.5511 13.1761C14.7982 13.0426 15.0709 12.9432 15.3692 12.8778C15.6704 12.8097 15.9729 12.7557 16.2769 12.7159C16.6746 12.6648 16.9971 12.6264 17.2442 12.6009C17.4942 12.5724 17.6761 12.5256 17.7897 12.4602C17.9062 12.3949 17.9644 12.2812 17.9644 12.1193V12.0852C17.9644 11.6648 17.8494 11.3381 17.6192 11.1051C17.392 10.8722 17.0468 10.7557 16.5837 10.7557C16.1036 10.7557 15.7272 10.8608 15.4545 11.071C15.1817 11.2812 14.99 11.5057 14.8792 11.7443L13.9246 11.4034C14.0951 11.0057 14.3224 10.696 14.6065 10.4744C14.8934 10.25 15.2059 10.0937 15.544 10.0057C15.8849 9.91477 16.2201 9.86932 16.5496 9.86932C16.7599 9.86932 17.0013 9.89489 17.2741 9.94602C17.5496 9.99432 17.8153 10.0952 18.0709 10.2486C18.3295 10.402 18.544 10.6335 18.7144 10.9432C18.8849 11.2528 18.9701 11.6676 18.9701 12.1875V16.5H17.9644V15.6136H17.9133C17.8451 15.7557 17.7315 15.9077 17.5724 16.0696C17.4133 16.2315 17.2016 16.3693 16.9374 16.483C16.6732 16.5966 16.3508 16.6534 15.9701 16.6534ZM16.1235 15.75C16.5212 15.75 16.8565 15.6719 17.1292 15.5156C17.4048 15.3594 17.6121 15.1577 17.7513 14.9105C17.8934 14.6634 17.9644 14.4034 17.9644 14.1307V13.2102C17.9218 13.2614 17.8281 13.3082 17.6832 13.3509C17.5411 13.3906 17.3763 13.4261 17.1888 13.4574C17.0042 13.4858 16.8238 13.5114 16.6477 13.5341C16.4744 13.554 16.3337 13.571 16.2258 13.5852C15.9644 13.6193 15.7201 13.6747 15.4928 13.7514C15.2684 13.8253 15.0866 13.9375 14.9474 14.0881C14.811 14.2358 14.7428 14.4375 14.7428 14.6932C14.7428 15.0426 14.8721 15.3068 15.1306 15.4858C15.392 15.6619 15.7229 15.75 16.1235 15.75ZM25.472 11.4205L24.5686 11.6761C24.5118 11.5256 24.428 11.3793 24.3172 11.2372C24.2093 11.0923 24.0615 10.973 23.874 10.8793C23.6865 10.7855 23.4465 10.7386 23.1539 10.7386C22.7533 10.7386 22.4195 10.831 22.1524 11.0156C21.8882 11.1974 21.7561 11.429 21.7561 11.7102C21.7561 11.9602 21.847 12.1577 22.0289 12.3026C22.2107 12.4474 22.4948 12.5682 22.8811 12.6648L23.8527 12.9034C24.438 13.0455 24.874 13.2628 25.161 13.5554C25.4479 13.8452 25.5914 14.2187 25.5914 14.6761C25.5914 15.0511 25.4834 15.3864 25.2675 15.6818C25.0544 15.9773 24.7561 16.2102 24.3726 16.3807C23.9891 16.5511 23.5431 16.6364 23.0345 16.6364C22.3669 16.6364 21.8144 16.4915 21.3769 16.2017C20.9394 15.9119 20.6624 15.4886 20.5459 14.9318L21.5005 14.6932C21.5914 15.0455 21.7632 15.3097 22.0161 15.4858C22.2718 15.6619 22.6056 15.75 23.0175 15.75C23.4862 15.75 23.8584 15.6506 24.134 15.4517C24.4124 15.25 24.5516 15.0085 24.5516 14.7273C24.5516 14.5 24.472 14.3097 24.313 14.1562C24.1539 14 23.9095 13.8835 23.58 13.8068L22.4891 13.5511C21.8897 13.4091 21.4493 13.1889 21.1681 12.8906C20.8897 12.5895 20.7505 12.2131 20.7505 11.7614C20.7505 11.392 20.8541 11.0653 21.0615 10.7812C21.2718 10.4972 21.5573 10.2741 21.9181 10.1122C22.2817 9.95028 22.6936 9.86932 23.1539 9.86932C23.8016 9.86932 24.3101 10.0114 24.6794 10.2955C25.0516 10.5795 25.3158 10.9545 25.472 11.4205ZM28.1409 12.5625V16.5H27.1352V7.77273H28.1409V10.9773H28.2261C28.3795 10.6392 28.6096 10.3707 28.9165 10.1719C29.2261 9.97017 29.6381 9.86932 30.1523 9.86932C30.5983 9.86932 30.9889 9.95881 31.3241 10.1378C31.6594 10.3139 31.9193 10.5852 32.104 10.9517C32.2915 11.3153 32.3852 11.7784 32.3852 12.3409V16.5H31.3795V12.4091C31.3795 11.8892 31.2446 11.4872 30.9747 11.2031C30.7077 10.9162 30.3369 10.7727 29.8625 10.7727C29.5329 10.7727 29.2375 10.8423 28.9761 10.9815C28.7176 11.1207 28.5131 11.3239 28.3625 11.5909C28.2148 11.858 28.1409 12.1818 28.1409 12.5625ZM34.3914 16.5V7.77273H35.3971V10.9943H35.4823C35.5562 10.8807 35.6585 10.7358 35.7891 10.5597C35.9227 10.3807 36.113 10.2216 36.3602 10.0824C36.6102 9.94034 36.9482 9.86932 37.3744 9.86932C37.9255 9.86932 38.4113 10.0071 38.8318 10.2827C39.2522 10.5582 39.5803 10.9489 39.8161 11.4545C40.0519 11.9602 40.1698 12.5568 40.1698 13.2443C40.1698 13.9375 40.0519 14.5384 39.8161 15.0469C39.5803 15.5526 39.2536 15.9446 38.836 16.223C38.4184 16.4986 37.9369 16.6364 37.3914 16.6364C36.971 16.6364 36.6343 16.5668 36.3815 16.4276C36.1286 16.2855 35.934 16.125 35.7977 15.946C35.6613 15.7642 35.5562 15.6136 35.4823 15.4943H35.363V16.5H34.3914ZM35.3801 13.2273C35.3801 13.7216 35.4525 14.1577 35.5974 14.5355C35.7423 14.9105 35.9539 15.2045 36.2323 15.4176C36.5107 15.6278 36.8516 15.733 37.2551 15.733C37.6755 15.733 38.0264 15.6222 38.3076 15.4006C38.5917 15.1761 38.8048 14.875 38.9468 14.4972C39.0917 14.1165 39.1641 13.6932 39.1641 13.2273C39.1641 12.767 39.0931 12.3523 38.9511 11.983C38.8119 11.6108 38.6002 11.3168 38.3161 11.1009C38.0349 10.8821 37.6812 10.7727 37.2551 10.7727C36.846 10.7727 36.5022 10.8764 36.2238 11.0838C35.9454 11.2884 35.7352 11.5753 35.5931 11.9446C35.4511 12.3111 35.3801 12.7386 35.3801 13.2273ZM44.3973 16.6364C43.8064 16.6364 43.2879 16.4957 42.8419 16.2145C42.3987 15.9332 42.0521 15.5398 41.8021 15.0341C41.5549 14.5284 41.4314 13.9375 41.4314 13.2614C41.4314 12.5795 41.5549 11.9844 41.8021 11.4759C42.0521 10.9673 42.3987 10.5724 42.8419 10.2912C43.2879 10.0099 43.8064 9.86932 44.3973 9.86932C44.9882 9.86932 45.5052 10.0099 45.9484 10.2912C46.3944 10.5724 46.741 10.9673 46.9882 11.4759C47.2382 11.9844 47.3632 12.5795 47.3632 13.2614C47.3632 13.9375 47.2382 14.5284 46.9882 15.0341C46.741 15.5398 46.3944 15.9332 45.9484 16.2145C45.5052 16.4957 44.9882 16.6364 44.3973 16.6364ZM44.3973 15.733C44.8461 15.733 45.2155 15.6179 45.5052 15.3878C45.795 15.1577 46.0095 14.8551 46.1487 14.4801C46.2879 14.1051 46.3575 13.6989 46.3575 13.2614C46.3575 12.8239 46.2879 12.4162 46.1487 12.0384C46.0095 11.6605 45.795 11.3551 45.5052 11.1222C45.2155 10.8892 44.8461 10.7727 44.3973 10.7727C43.9484 10.7727 43.5791 10.8892 43.2893 11.1222C42.9995 11.3551 42.7851 11.6605 42.6459 12.0384C42.5066 12.4162 42.437 12.8239 42.437 13.2614C42.437 13.6989 42.5066 14.1051 42.6459 14.4801C42.7851 14.8551 42.9995 15.1577 43.2893 15.3878C43.5791 15.6179 43.9484 15.733 44.3973 15.733ZM50.8545 16.6534C50.4397 16.6534 50.0633 16.5753 49.7252 16.419C49.3871 16.2599 49.1187 16.0312 48.9198 15.733C48.7209 15.4318 48.6215 15.0682 48.6215 14.642C48.6215 14.267 48.6954 13.9631 48.8431 13.7301C48.9908 13.4943 49.1883 13.3097 49.4354 13.1761C49.6826 13.0426 49.9553 12.9432 50.2536 12.8778C50.5548 12.8097 50.8573 12.7557 51.1613 12.7159C51.559 12.6648 51.8815 12.6264 52.1286 12.6009C52.3786 12.5724 52.5604 12.5256 52.6741 12.4602C52.7906 12.3949 52.8488 12.2812 52.8488 12.1193V12.0852C52.8488 11.6648 52.7337 11.3381 52.5036 11.1051C52.2763 10.8722 51.9312 10.7557 51.4681 10.7557C50.988 10.7557 50.6116 10.8608 50.3388 11.071C50.0661 11.2812 49.8744 11.5057 49.7636 11.7443L48.809 11.4034C48.9795 11.0057 49.2067 10.696 49.4908 10.4744C49.7778 10.25 50.0903 10.0937 50.4283 10.0057C50.7692 9.91477 51.1045 9.86932 51.434 9.86932C51.6442 9.86932 51.8857 9.89489 52.1584 9.94602C52.434 9.99432 52.6996 10.0952 52.9553 10.2486C53.2138 10.402 53.4283 10.6335 53.5988 10.9432C53.7692 11.2528 53.8545 11.6676 53.8545 12.1875V16.5H52.8488V15.6136H52.7977C52.7295 15.7557 52.6158 15.9077 52.4567 16.0696C52.2977 16.2315 52.086 16.3693 51.8218 16.483C51.5576 16.5966 51.2352 16.6534 50.8545 16.6534ZM51.0079 15.75C51.4056 15.75 51.7408 15.6719 52.0136 15.5156C52.2891 15.3594 52.4965 15.1577 52.6357 14.9105C52.7778 14.6634 52.8488 14.4034 52.8488 14.1307V13.2102C52.8062 13.2614 52.7124 13.3082 52.5675 13.3509C52.4255 13.3906 52.2607 13.4261 52.0732 13.4574C51.8886 13.4858 51.7082 13.5114 51.532 13.5341C51.3587 13.554 51.2181 13.571 51.1102 13.5852C50.8488 13.6193 50.6045 13.6747 50.3772 13.7514C50.1528 13.8253 49.9709 13.9375 49.8317 14.0881C49.6954 14.2358 49.6272 14.4375 49.6272 14.6932C49.6272 15.0426 49.7565 15.3068 50.015 15.4858C50.2763 15.6619 50.6073 15.75 51.0079 15.75ZM55.7201 16.5V9.95455H56.6916V10.9432H56.7598C56.8791 10.6193 57.0951 10.3565 57.4076 10.1548C57.7201 9.95312 58.0723 9.85227 58.4644 9.85227C58.5382 9.85227 58.6306 9.85369 58.7414 9.85653C58.8522 9.85937 58.936 9.86364 58.9928 9.86932V10.892C58.9587 10.8835 58.8806 10.8707 58.7584 10.8537C58.6391 10.8338 58.5127 10.8239 58.3791 10.8239C58.061 10.8239 57.7769 10.8906 57.5269 11.0241C57.2797 11.1548 57.0837 11.3366 56.9388 11.5696C56.7968 11.7997 56.7257 12.0625 56.7257 12.358V16.5H55.7201ZM62.4873 16.6364C61.9418 16.6364 61.4603 16.4986 61.0427 16.223C60.6251 15.9446 60.2984 15.5526 60.0626 15.0469C59.8268 14.5384 59.7089 13.9375 59.7089 13.2443C59.7089 12.5568 59.8268 11.9602 60.0626 11.4545C60.2984 10.9489 60.6265 10.5582 61.0469 10.2827C61.4674 10.0071 61.9532 9.86932 62.5043 9.86932C62.9305 9.86932 63.2671 9.94034 63.5143 10.0824C63.7643 10.2216 63.9546 10.3807 64.0853 10.5597C64.2188 10.7358 64.3225 10.8807 64.3964 10.9943H64.4816V7.77273H65.4873V16.5H64.5157V15.4943H64.3964C64.3225 15.6136 64.2174 15.7642 64.081 15.946C63.9447 16.125 63.7501 16.2855 63.4972 16.4276C63.2444 16.5668 62.9077 16.6364 62.4873 16.6364ZM62.6236 15.733C63.027 15.733 63.368 15.6278 63.6464 15.4176C63.9248 15.2045 64.1364 14.9105 64.2813 14.5355C64.4262 14.1577 64.4986 13.7216 64.4986 13.2273C64.4986 12.7386 64.4276 12.3111 64.2856 11.9446C64.1435 11.5753 63.9333 11.2884 63.6549 11.0838C63.3765 10.8764 63.0327 10.7727 62.6236 10.7727C62.1975 10.7727 61.8424 10.8821 61.5583 11.1009C61.277 11.3168 61.0654 11.6108 60.9234 11.983C60.7841 12.3523 60.7145 12.767 60.7145 13.2273C60.7145 13.6932 60.7856 14.1165 60.9276 14.4972C61.0725 14.875 61.2856 15.1761 61.5668 15.4006C61.8509 15.6222 62.2032 15.733 62.6236 15.733ZM77.394 7.36364L74.5815 17.8125H73.6611L76.4736 7.36364H77.394Z" fill="#8A8A8A"/>
<path d="M85.5625 16.5V7.77273H88.5114C89.196 7.77273 89.7557 7.89631 90.1904 8.14347C90.6279 8.38778 90.9517 8.71875 91.1619 9.13636C91.3722 9.55398 91.4773 10.0199 91.4773 10.5341C91.4773 11.0483 91.3722 11.5156 91.1619 11.9361C90.9546 12.3565 90.6335 12.6918 90.1989 12.9418C89.7642 13.1889 89.2074 13.3125 88.5284 13.3125H86.4148V12.375H88.4943C88.9631 12.375 89.3395 12.294 89.6236 12.1321C89.9077 11.9702 90.1136 11.7514 90.2415 11.4759C90.3722 11.1974 90.4375 10.8835 90.4375 10.5341C90.4375 10.1847 90.3722 9.87216 90.2415 9.59659C90.1136 9.32102 89.9063 9.10511 89.6193 8.94886C89.3324 8.78977 88.9517 8.71023 88.4773 8.71023H86.6193V16.5H85.5625ZM93.0733 16.5V9.95455H94.0449V10.9432H94.1131C94.2324 10.6193 94.4483 10.3565 94.7608 10.1548C95.0733 9.95312 95.4256 9.85227 95.8177 9.85227C95.8915 9.85227 95.9838 9.85369 96.0946 9.85653C96.2054 9.85937 96.2892 9.86364 96.3461 9.86932V10.892C96.312 10.8835 96.2338 10.8707 96.1117 10.8537C95.9924 10.8338 95.8659 10.8239 95.7324 10.8239C95.4142 10.8239 95.1302 10.8906 94.8802 11.0241C94.633 11.1548 94.437 11.3366 94.2921 11.5696C94.15 11.7997 94.079 12.0625 94.079 12.358V16.5H93.0733ZM100.028 16.6364C99.4371 16.6364 98.9187 16.4957 98.4727 16.2145C98.0295 15.9332 97.6829 15.5398 97.4329 15.0341C97.1857 14.5284 97.0621 13.9375 97.0621 13.2614C97.0621 12.5795 97.1857 11.9844 97.4329 11.4759C97.6829 10.9673 98.0295 10.5724 98.4727 10.2912C98.9187 10.0099 99.4371 9.86932 100.028 9.86932C100.619 9.86932 101.136 10.0099 101.579 10.2912C102.025 10.5724 102.372 10.9673 102.619 11.4759C102.869 11.9844 102.994 12.5795 102.994 13.2614C102.994 13.9375 102.869 14.5284 102.619 15.0341C102.372 15.5398 102.025 15.9332 101.579 16.2145C101.136 16.4957 100.619 16.6364 100.028 16.6364ZM100.028 15.733C100.477 15.733 100.846 15.6179 101.136 15.3878C101.426 15.1577 101.64 14.8551 101.779 14.4801C101.919 14.1051 101.988 13.6989 101.988 13.2614C101.988 12.8239 101.919 12.4162 101.779 12.0384C101.64 11.6605 101.426 11.3551 101.136 11.1222C100.846 10.8892 100.477 10.7727 100.028 10.7727C99.5792 10.7727 99.2099 10.8892 98.9201 11.1222C98.6303 11.3551 98.4158 11.6605 98.2766 12.0384C98.1374 12.4162 98.0678 12.8239 98.0678 13.2614C98.0678 13.6989 98.1374 14.1051 98.2766 14.4801C98.4158 14.8551 98.6303 15.1577 98.9201 15.3878C99.2099 15.6179 99.5792 15.733 100.028 15.733ZM104.559 9.95455H105.565V16.9773C105.565 17.3807 105.495 17.7301 105.356 18.0256C105.22 18.321 105.012 18.5497 104.734 18.7116C104.458 18.8736 104.11 18.9545 103.69 18.9545C103.656 18.9545 103.622 18.9545 103.588 18.9545C103.553 18.9545 103.519 18.9545 103.485 18.9545V18.017C103.519 18.017 103.551 18.017 103.579 18.017C103.607 18.017 103.639 18.017 103.673 18.017C103.98 18.017 104.204 17.9261 104.346 17.7443C104.488 17.5653 104.559 17.3097 104.559 16.9773V9.95455ZM105.053 8.86364C104.857 8.86364 104.688 8.79688 104.546 8.66335C104.407 8.52983 104.338 8.36932 104.338 8.18182C104.338 7.99432 104.407 7.83381 104.546 7.70028C104.688 7.56676 104.857 7.5 105.053 7.5C105.249 7.5 105.417 7.56676 105.556 7.70028C105.698 7.83381 105.769 7.99432 105.769 8.18182C105.769 8.36932 105.698 8.52983 105.556 8.66335C105.417 8.79688 105.249 8.86364 105.053 8.86364ZM110.181 16.6364C109.55 16.6364 109.006 16.4972 108.549 16.2188C108.094 15.9375 107.744 15.5455 107.496 15.0426C107.252 14.5369 107.13 13.9489 107.13 13.2784C107.13 12.608 107.252 12.017 107.496 11.5057C107.744 10.9915 108.087 10.5909 108.528 10.304C108.971 10.0142 109.488 9.86932 110.079 9.86932C110.42 9.86932 110.756 9.92614 111.089 10.0398C111.421 10.1534 111.724 10.3381 111.996 10.5938C112.269 10.8466 112.486 11.1818 112.648 11.5994C112.81 12.017 112.891 12.5312 112.891 13.142V13.5682H107.846V12.6989H111.869C111.869 12.3295 111.795 12 111.647 11.7102C111.502 11.4205 111.295 11.1918 111.025 11.0241C110.758 10.8565 110.442 10.7727 110.079 10.7727C109.678 10.7727 109.332 10.8722 109.039 11.071C108.749 11.267 108.526 11.5227 108.37 11.8381C108.214 12.1534 108.136 12.4915 108.136 12.8523V13.4318C108.136 13.9261 108.221 14.3452 108.391 14.6889C108.565 15.0298 108.805 15.2898 109.111 15.4688C109.418 15.6449 109.775 15.733 110.181 15.733C110.445 15.733 110.684 15.696 110.897 15.6222C111.113 15.5455 111.299 15.4318 111.455 15.2812C111.611 15.1278 111.732 14.9375 111.817 14.7102L112.789 14.983C112.687 15.3125 112.515 15.6023 112.273 15.8523C112.032 16.0994 111.734 16.2926 111.379 16.4318C111.023 16.5682 110.624 16.6364 110.181 16.6364ZM117.11 16.6364C116.497 16.6364 115.968 16.4915 115.525 16.2017C115.082 15.9119 114.741 15.5128 114.502 15.0043C114.264 14.4957 114.144 13.9148 114.144 13.2614C114.144 12.5966 114.266 12.0099 114.511 11.5014C114.758 10.9901 115.102 10.5909 115.542 10.304C115.985 10.0142 116.502 9.86932 117.093 9.86932C117.553 9.86932 117.968 9.95455 118.338 10.125C118.707 10.2955 119.009 10.5341 119.245 10.8409C119.481 11.1477 119.627 11.5057 119.684 11.9148H118.678C118.602 11.6165 118.431 11.3523 118.167 11.1222C117.906 10.8892 117.553 10.7727 117.11 10.7727C116.718 10.7727 116.374 10.875 116.079 11.0795C115.786 11.2812 115.558 11.5668 115.393 11.9361C115.231 12.3026 115.15 12.733 115.15 13.2273C115.15 13.733 115.23 14.1733 115.389 14.5483C115.551 14.9233 115.778 15.2145 116.07 15.4219C116.366 15.6293 116.713 15.733 117.11 15.733C117.372 15.733 117.609 15.6875 117.822 15.5966C118.035 15.5057 118.215 15.375 118.363 15.2045C118.511 15.0341 118.616 14.8295 118.678 14.5909H119.684C119.627 14.9773 119.487 15.3253 119.262 15.6349C119.041 15.9418 118.747 16.1861 118.38 16.3679C118.016 16.5469 117.593 16.6364 117.11 16.6364ZM124.031 9.95455V10.8068H120.639V9.95455H124.031ZM121.627 8.38636H122.633V14.625C122.633 14.9091 122.674 15.1222 122.757 15.2642C122.842 15.4034 122.95 15.4972 123.081 15.5455C123.214 15.5909 123.355 15.6136 123.502 15.6136C123.613 15.6136 123.704 15.608 123.775 15.5966C123.846 15.5824 123.903 15.571 123.946 15.5625L124.15 16.4659C124.082 16.4915 123.987 16.517 123.865 16.5426C123.743 16.571 123.588 16.5852 123.4 16.5852C123.116 16.5852 122.838 16.5241 122.565 16.402C122.295 16.2798 122.071 16.0938 121.892 15.8438C121.716 15.5938 121.627 15.2784 121.627 14.8977V8.38636ZM136.479 12.1364C136.479 13.0568 136.312 13.8523 135.98 14.5227C135.648 15.1932 135.192 15.7102 134.612 16.0739C134.033 16.4375 133.371 16.6193 132.626 16.6193C131.882 16.6193 131.22 16.4375 130.641 16.0739C130.061 15.7102 129.605 15.1932 129.273 14.5227C128.94 13.8523 128.774 13.0568 128.774 12.1364C128.774 11.2159 128.94 10.4205 129.273 9.75C129.605 9.07955 130.061 8.5625 130.641 8.19886C131.22 7.83523 131.882 7.65341 132.626 7.65341C133.371 7.65341 134.033 7.83523 134.612 8.19886C135.192 8.5625 135.648 9.07955 135.98 9.75C136.312 10.4205 136.479 11.2159 136.479 12.1364ZM135.456 12.1364C135.456 11.3807 135.33 10.7429 135.077 10.223C134.827 9.70312 134.487 9.30966 134.058 9.04261C133.632 8.77557 133.155 8.64205 132.626 8.64205C132.098 8.64205 131.619 8.77557 131.19 9.04261C130.764 9.30966 130.425 9.70312 130.172 10.223C129.922 10.7429 129.797 11.3807 129.797 12.1364C129.797 12.892 129.922 13.5298 130.172 14.0497C130.425 14.5696 130.764 14.9631 131.19 15.2301C131.619 15.4972 132.098 15.6307 132.626 15.6307C133.155 15.6307 133.632 15.4972 134.058 15.2301C134.487 14.9631 134.827 14.5696 135.077 14.0497C135.33 13.5298 135.456 12.892 135.456 12.1364ZM143.502 9.95455L141.081 16.5H140.058L137.638 9.95455H138.729L140.536 15.1705H140.604L142.411 9.95455H143.502ZM147.369 16.6364C146.738 16.6364 146.194 16.4972 145.737 16.2188C145.282 15.9375 144.931 15.5455 144.684 15.0426C144.44 14.5369 144.318 13.9489 144.318 13.2784C144.318 12.608 144.44 12.017 144.684 11.5057C144.931 10.9915 145.275 10.5909 145.715 10.304C146.159 10.0142 146.676 9.86932 147.267 9.86932C147.608 9.86932 147.944 9.92614 148.277 10.0398C148.609 10.1534 148.912 10.3381 149.184 10.5938C149.457 10.8466 149.674 11.1818 149.836 11.5994C149.998 12.017 150.079 12.5312 150.079 13.142V13.5682H145.034V12.6989H149.056C149.056 12.3295 148.983 12 148.835 11.7102C148.69 11.4205 148.483 11.1918 148.213 11.0241C147.946 10.8565 147.63 10.7727 147.267 10.7727C146.866 10.7727 146.519 10.8722 146.227 11.071C145.937 11.267 145.714 11.5227 145.558 11.8381C145.402 12.1534 145.323 12.4915 145.323 12.8523V13.4318C145.323 13.9261 145.409 14.3452 145.579 14.6889C145.752 15.0298 145.992 15.2898 146.299 15.4688C146.606 15.6449 146.963 15.733 147.369 15.733C147.633 15.733 147.872 15.696 148.085 15.6222C148.301 15.5455 148.487 15.4318 148.643 15.2812C148.799 15.1278 148.92 14.9375 149.005 14.7102L149.977 14.983C149.875 15.3125 149.703 15.6023 149.461 15.8523C149.22 16.0994 148.921 16.2926 148.566 16.4318C148.211 16.5682 147.812 16.6364 147.369 16.6364ZM151.639 16.5V9.95455H152.611V10.9432H152.679C152.798 10.6193 153.014 10.3565 153.326 10.1548C153.639 9.95312 153.991 9.85227 154.383 9.85227C154.457 9.85227 154.549 9.85369 154.66 9.85653C154.771 9.85937 154.855 9.86364 154.912 9.86932V10.892C154.878 10.8835 154.799 10.8707 154.677 10.8537C154.558 10.8338 154.432 10.8239 154.298 10.8239C153.98 10.8239 153.696 10.8906 153.446 11.0241C153.199 11.1548 153.003 11.3366 152.858 11.5696C152.716 11.7997 152.645 12.0625 152.645 12.358V16.5H151.639ZM161.685 9.95455L159.265 16.5H158.242L155.822 9.95455H156.913L158.719 15.1705H158.788L160.594 9.95455H161.685ZM163.043 16.5V9.95455H164.048V16.5H163.043ZM163.554 8.86364C163.358 8.86364 163.189 8.79688 163.047 8.66335C162.908 8.52983 162.838 8.36932 162.838 8.18182C162.838 7.99432 162.908 7.83381 163.047 7.70028C163.189 7.56676 163.358 7.5 163.554 7.5C163.75 7.5 163.918 7.56676 164.057 7.70028C164.199 7.83381 164.27 7.99432 164.27 8.18182C164.27 8.36932 164.199 8.52983 164.057 8.66335C163.918 8.79688 163.75 8.86364 163.554 8.86364ZM168.665 16.6364C168.034 16.6364 167.49 16.4972 167.033 16.2188C166.578 15.9375 166.227 15.5455 165.98 15.0426C165.736 14.5369 165.614 13.9489 165.614 13.2784C165.614 12.608 165.736 12.017 165.98 11.5057C166.227 10.9915 166.571 10.5909 167.011 10.304C167.454 10.0142 167.971 9.86932 168.562 9.86932C168.903 9.86932 169.24 9.92614 169.572 10.0398C169.905 10.1534 170.207 10.3381 170.48 10.5938C170.753 10.8466 170.97 11.1818 171.132 11.5994C171.294 12.017 171.375 12.5312 171.375 13.142V13.5682H166.329V12.6989H170.352C170.352 12.3295 170.278 12 170.131 11.7102C169.986 11.4205 169.778 11.1918 169.508 11.0241C169.241 10.8565 168.926 10.7727 168.562 10.7727C168.162 10.7727 167.815 10.8722 167.523 11.071C167.233 11.267 167.01 11.5227 166.854 11.8381C166.697 12.1534 166.619 12.4915 166.619 12.8523V13.4318C166.619 13.9261 166.704 14.3452 166.875 14.6889C167.048 15.0298 167.288 15.2898 167.595 15.4688C167.902 15.6449 168.258 15.733 168.665 15.733C168.929 15.733 169.168 15.696 169.381 15.6222C169.596 15.5455 169.783 15.4318 169.939 15.2812C170.095 15.1278 170.216 14.9375 170.301 14.7102L171.273 14.983C171.17 15.3125 170.998 15.6023 170.757 15.8523C170.516 16.0994 170.217 16.2926 169.862 16.4318C169.507 16.5682 169.108 16.6364 168.665 16.6364ZM174.418 16.5L172.423 9.95455H173.48L174.895 14.9659H174.963L176.361 9.95455H177.435L178.815 14.9489H178.884L180.298 9.95455H181.355L179.361 16.5H178.372L176.94 11.4716H176.838L175.406 16.5H174.418Z" fill="#1677FF"/>
</svg>
