<svg width="20" height="20" viewBox="0 0 20 20" fill="none" xmlns="http://www.w3.org/2000/svg">
<g clip-path="url(#clip0_475_12909)">
<path d="M17.764 15.7291C17.764 17.6933 16.1657 19.2916 14.2015 19.2916H5.79871C3.83446 19.2916 2.23621 17.6933 2.23621 15.7291V4.27075C2.23621 2.30651 3.83446 0.708252 5.79871 0.708252H8.09037C8.37024 0.708252 8.59732 0.935327 8.59732 1.2152C8.59732 1.49507 8.37024 1.72214 8.09037 1.72214H5.79871C4.39344 1.72214 3.25009 2.86548 3.25009 4.27075V15.7291C3.25009 17.1344 4.39344 18.2777 5.79871 18.2777H14.2015C15.6068 18.2777 16.7501 17.1344 16.7501 15.7291V4.27075C16.7501 3.36366 16.2614 2.51726 15.4758 2.06289L17.764 15.7291ZM17.764 15.7291V4.27075M17.764 15.7291V4.27075M17.764 4.27075C17.764 3.00253 17.0826 1.82091 15.9839 1.18587C15.7401 1.04292 15.4298 1.12854 15.291 1.37046M17.764 4.27075L15.291 1.37046M15.291 1.37046C15.1503 1.61289 15.2335 1.92297 15.4757 2.06285L15.291 1.37046ZM5.79871 15.2221C5.51884 15.2221 5.29176 15.4492 5.29176 15.7291C5.29176 16.009 5.51884 16.236 5.79871 16.236H14.2015C14.4814 16.236 14.7084 16.009 14.7084 15.7291C14.7084 15.4492 14.4814 15.2221 14.2015 15.2221H5.79871ZM5.79871 12.9305C5.51884 12.9305 5.29176 13.1575 5.29176 13.4374C5.29176 13.7173 5.51884 13.9444 5.79871 13.9444H14.2015C14.4814 13.9444 14.7084 13.7173 14.7084 13.4374C14.7084 13.1575 14.4814 12.9305 14.2015 12.9305H5.79871ZM9.61815 9.36103C9.89802 9.36103 10.1251 9.13395 10.1251 8.85408V3.50686C10.1251 2.52326 10.9262 1.72214 11.9098 1.72214C12.8934 1.72214 13.6945 2.52326 13.6945 3.50686V9.99992C13.6945 10.3518 13.4075 10.6388 13.0556 10.6388C12.7038 10.6388 12.4168 10.3518 12.4168 9.99992V3.50686C12.4168 3.22699 12.1897 2.99992 11.9098 2.99992C11.6299 2.99992 11.4029 3.22699 11.4029 3.50686V9.99992C11.4029 10.9115 12.144 11.6527 13.0556 11.6527C13.9673 11.6527 14.7084 10.9115 14.7084 9.99992V3.50686C14.7084 1.96352 13.4532 0.708252 11.9098 0.708252C10.3665 0.708252 9.11121 1.96352 9.11121 3.50686V8.85408C9.11121 9.13395 9.33828 9.36103 9.61815 9.36103ZM5.79871 11.6527H9.61815C9.89802 11.6527 10.1251 11.4256 10.1251 11.1458C10.1251 10.8659 9.89802 10.6388 9.61815 10.6388H5.79871C5.51884 10.6388 5.29176 10.8659 5.29176 11.1458C5.29176 11.4256 5.51884 11.6527 5.79871 11.6527Z" fill="#404040" stroke="#404040" stroke-width="0.25"/>
</g>
<defs>
<clipPath id="clip0_475_12909">
<rect width="20" height="20" fill="white"/>
</clipPath>
</defs>
</svg>
